<mxfile host="Electron" agent="Mozilla/5.0 (X11; Linux x86_64) AppleWebKit/537.36 (KHTML, like Gecko) draw.io/26.0.4 Chrome/128.0.6613.186 Electron/32.2.5 Safari/537.36" version="26.0.4">
  <diagram name="Page-1" id="meVkWX2NYukC44fZ4OGT">
    <mxGraphModel dx="1605" dy="1842" grid="1" gridSize="10" guides="1" tooltips="1" connect="1" arrows="1" fold="1" page="1" pageScale="1" pageWidth="1100" pageHeight="850" math="0" shadow="0">
      <root>
        <mxCell id="0" />
        <mxCell id="1" parent="0" />
        <mxCell id="vkuAOGlJkcku4Va_d99O-21" value="" style="rounded=0;whiteSpace=wrap;html=1;fillColor=none;" vertex="1" parent="1">
          <mxGeometry x="170" y="-690" width="760" height="480" as="geometry" />
        </mxCell>
        <mxCell id="aOqvlGi3BOh0_aibLUsC-42" value="TWAIN WP 4" style="rounded=0;whiteSpace=wrap;html=1;fillColor=#ffcccc;strokeColor=#36393d;labelPosition=center;verticalLabelPosition=middle;align=center;verticalAlign=top;horizontal=1;fillOpacity=50;" parent="1" vertex="1">
          <mxGeometry x="600" y="180" width="280" height="320" as="geometry" />
        </mxCell>
        <mxCell id="aOqvlGi3BOh0_aibLUsC-4" value="" style="endArrow=classic;html=1;rounded=0;exitX=1;exitY=0.25;exitDx=0;exitDy=0;entryX=0;entryY=0.25;entryDx=0;entryDy=0;" parent="1" target="aOqvlGi3BOh0_aibLUsC-72" edge="1" source="aOqvlGi3BOh0_aibLUsC-78">
          <mxGeometry width="50" height="50" relative="1" as="geometry">
            <mxPoint x="235" y="340" as="sourcePoint" />
            <mxPoint x="160" y="340" as="targetPoint" />
            <Array as="points">
              <mxPoint x="250" y="260" />
              <mxPoint x="250" y="280" />
            </Array>
          </mxGeometry>
        </mxCell>
        <mxCell id="aOqvlGi3BOh0_aibLUsC-12" value="" style="endArrow=none;html=1;rounded=0;exitX=1;exitY=0.5;exitDx=0;exitDy=0;endFill=0;entryX=0;entryY=0.5;entryDx=0;entryDy=0;" parent="1" target="aOqvlGi3BOh0_aibLUsC-13" edge="1">
          <mxGeometry width="50" height="50" relative="1" as="geometry">
            <mxPoint x="440" y="260" as="sourcePoint" />
            <mxPoint x="480" y="260" as="targetPoint" />
          </mxGeometry>
        </mxCell>
        <mxCell id="aOqvlGi3BOh0_aibLUsC-13" value="Individual metric values" style="text;html=1;align=center;verticalAlign=middle;whiteSpace=wrap;rounded=0;" parent="1" vertex="1">
          <mxGeometry x="480" y="245" width="80" height="30" as="geometry" />
        </mxCell>
        <mxCell id="aOqvlGi3BOh0_aibLUsC-14" value="" style="endArrow=classic;html=1;rounded=0;exitX=1;exitY=0.5;exitDx=0;exitDy=0;entryX=0;entryY=0.5;entryDx=0;entryDy=0;" parent="1" source="aOqvlGi3BOh0_aibLUsC-13" target="aOqvlGi3BOh0_aibLUsC-16" edge="1">
          <mxGeometry width="50" height="50" relative="1" as="geometry">
            <mxPoint x="575.0000000000005" y="260" as="sourcePoint" />
            <mxPoint x="615" y="260" as="targetPoint" />
          </mxGeometry>
        </mxCell>
        <mxCell id="aOqvlGi3BOh0_aibLUsC-16" value="Multi-Objective&lt;div&gt;function and constraints&amp;nbsp; evaluation&lt;/div&gt;" style="rounded=0;whiteSpace=wrap;html=1;" parent="1" vertex="1">
          <mxGeometry x="680" y="220" width="120" height="80" as="geometry" />
        </mxCell>
        <mxCell id="aOqvlGi3BOh0_aibLUsC-26" value="" style="endArrow=none;html=1;rounded=0;exitX=1;exitY=0.5;exitDx=0;exitDy=0;endFill=0;entryX=0.5;entryY=0;entryDx=0;entryDy=0;" parent="1" source="aOqvlGi3BOh0_aibLUsC-16" target="aOqvlGi3BOh0_aibLUsC-29" edge="1">
          <mxGeometry width="50" height="50" relative="1" as="geometry">
            <mxPoint x="495" y="370" as="sourcePoint" />
            <mxPoint x="775" y="320" as="targetPoint" />
            <Array as="points">
              <mxPoint x="840" y="260" />
            </Array>
          </mxGeometry>
        </mxCell>
        <mxCell id="aOqvlGi3BOh0_aibLUsC-29" value="MO function&lt;div&gt;value&lt;/div&gt;" style="text;html=1;align=center;verticalAlign=middle;whiteSpace=wrap;rounded=0;" parent="1" vertex="1">
          <mxGeometry x="800" y="325" width="80" height="30" as="geometry" />
        </mxCell>
        <mxCell id="aOqvlGi3BOh0_aibLUsC-32" value="MO optimization" style="rounded=0;whiteSpace=wrap;html=1;" parent="1" vertex="1">
          <mxGeometry x="680" y="380" width="120" height="80" as="geometry" />
        </mxCell>
        <mxCell id="aOqvlGi3BOh0_aibLUsC-41" value="" style="endArrow=classic;html=1;rounded=0;entryX=1;entryY=0.5;entryDx=0;entryDy=0;exitX=0.5;exitY=1;exitDx=0;exitDy=0;" parent="1" source="aOqvlGi3BOh0_aibLUsC-29" target="aOqvlGi3BOh0_aibLUsC-32" edge="1">
          <mxGeometry width="50" height="50" relative="1" as="geometry">
            <mxPoint x="395" y="380" as="sourcePoint" />
            <mxPoint x="445" y="330" as="targetPoint" />
            <Array as="points">
              <mxPoint x="840" y="420" />
            </Array>
          </mxGeometry>
        </mxCell>
        <mxCell id="aOqvlGi3BOh0_aibLUsC-44" value="" style="endArrow=none;html=1;rounded=0;exitX=0;exitY=0.5;exitDx=0;exitDy=0;endFill=0;entryX=1;entryY=0.5;entryDx=0;entryDy=0;" parent="1" source="aOqvlGi3BOh0_aibLUsC-32" target="aOqvlGi3BOh0_aibLUsC-36" edge="1">
          <mxGeometry width="50" height="50" relative="1" as="geometry">
            <mxPoint x="615" y="420" as="sourcePoint" />
            <mxPoint x="590.0000000000005" y="420" as="targetPoint" />
          </mxGeometry>
        </mxCell>
        <mxCell id="aOqvlGi3BOh0_aibLUsC-36" value="Control inputs/&lt;div&gt;control strategy&lt;/div&gt;&lt;div&gt;(&lt;i&gt;optimization var&lt;/i&gt;&lt;span style=&quot;background-color: transparent; color: light-dark(rgb(0, 0, 0), rgb(255, 255, 255));&quot;&gt;&lt;i&gt;iables&lt;/i&gt;)&lt;/span&gt;&lt;/div&gt;" style="text;html=1;align=center;verticalAlign=middle;whiteSpace=wrap;rounded=0;" parent="1" vertex="1">
          <mxGeometry x="475" y="380" width="100" height="80" as="geometry" />
        </mxCell>
        <mxCell id="aOqvlGi3BOh0_aibLUsC-47" value="TWAIN WP 4" style="rounded=0;whiteSpace=wrap;html=1;fillColor=#ffcccc;strokeColor=#36393d;labelPosition=center;verticalLabelPosition=middle;align=center;verticalAlign=top;horizontal=1;fillOpacity=50;" parent="1" vertex="1">
          <mxGeometry x="735" y="808" width="280" height="320" as="geometry" />
        </mxCell>
        <mxCell id="aOqvlGi3BOh0_aibLUsC-48" value="TWAIN WP 3" style="rounded=0;whiteSpace=wrap;html=1;fillColor=#f9f7ed;strokeColor=#36393d;labelPosition=center;verticalLabelPosition=middle;align=center;verticalAlign=top;horizontal=1;fillOpacity=50;" parent="1" vertex="1">
          <mxGeometry x="455" y="808" width="160" height="140" as="geometry" />
        </mxCell>
        <mxCell id="aOqvlGi3BOh0_aibLUsC-49" value="TWAIN WP 2" style="rounded=0;whiteSpace=wrap;html=1;fillColor=#f9f7ed;strokeColor=#36393d;labelPosition=center;verticalLabelPosition=middle;align=center;verticalAlign=top;horizontal=1;fillOpacity=50;" parent="1" vertex="1">
          <mxGeometry x="180" y="828" width="160" height="140" as="geometry" />
        </mxCell>
        <mxCell id="aOqvlGi3BOh0_aibLUsC-50" value="Ambient wind conditions" style="text;html=1;align=center;verticalAlign=middle;whiteSpace=wrap;rounded=0;" parent="1" vertex="1">
          <mxGeometry x="60" y="893" width="60" height="30" as="geometry" />
        </mxCell>
        <mxCell id="aOqvlGi3BOh0_aibLUsC-51" value="" style="endArrow=classic;html=1;rounded=0;exitX=1;exitY=0.5;exitDx=0;exitDy=0;" parent="1" source="aOqvlGi3BOh0_aibLUsC-50" target="aOqvlGi3BOh0_aibLUsC-52" edge="1">
          <mxGeometry width="50" height="50" relative="1" as="geometry">
            <mxPoint x="200" y="898" as="sourcePoint" />
            <mxPoint x="200" y="918" as="targetPoint" />
          </mxGeometry>
        </mxCell>
        <mxCell id="aOqvlGi3BOh0_aibLUsC-52" value="Wind farm&lt;div&gt;surrogate models&lt;/div&gt;" style="rounded=0;whiteSpace=wrap;html=1;" parent="1" vertex="1">
          <mxGeometry x="200" y="868" width="120" height="80" as="geometry" />
        </mxCell>
        <mxCell id="aOqvlGi3BOh0_aibLUsC-53" value="" style="endArrow=none;html=1;rounded=0;exitX=1;exitY=0.5;exitDx=0;exitDy=0;endFill=0;entryX=0;entryY=0.5;entryDx=0;entryDy=0;" parent="1" source="aOqvlGi3BOh0_aibLUsC-52" target="aOqvlGi3BOh0_aibLUsC-54" edge="1">
          <mxGeometry width="50" height="50" relative="1" as="geometry">
            <mxPoint x="640" y="1008" as="sourcePoint" />
            <mxPoint x="350" y="848" as="targetPoint" />
          </mxGeometry>
        </mxCell>
        <mxCell id="aOqvlGi3BOh0_aibLUsC-54" value="Model outputs" style="text;html=1;align=center;verticalAlign=middle;whiteSpace=wrap;rounded=0;" parent="1" vertex="1">
          <mxGeometry x="361" y="893" width="80" height="30" as="geometry" />
        </mxCell>
        <mxCell id="aOqvlGi3BOh0_aibLUsC-55" value="Metrics evaluation" style="rounded=0;whiteSpace=wrap;html=1;" parent="1" vertex="1">
          <mxGeometry x="475" y="848" width="120" height="80" as="geometry" />
        </mxCell>
        <mxCell id="aOqvlGi3BOh0_aibLUsC-56" value="" style="endArrow=classic;html=1;rounded=0;exitX=1;exitY=0.5;exitDx=0;exitDy=0;entryX=0;entryY=0.75;entryDx=0;entryDy=0;" parent="1" source="aOqvlGi3BOh0_aibLUsC-54" target="aOqvlGi3BOh0_aibLUsC-55" edge="1">
          <mxGeometry width="50" height="50" relative="1" as="geometry">
            <mxPoint x="635" y="998" as="sourcePoint" />
            <mxPoint x="685" y="948" as="targetPoint" />
          </mxGeometry>
        </mxCell>
        <mxCell id="aOqvlGi3BOh0_aibLUsC-57" value="" style="endArrow=none;html=1;rounded=0;exitX=1;exitY=0.5;exitDx=0;exitDy=0;endFill=0;entryX=0;entryY=0.5;entryDx=0;entryDy=0;" parent="1" target="aOqvlGi3BOh0_aibLUsC-58" edge="1" source="aOqvlGi3BOh0_aibLUsC-55">
          <mxGeometry width="50" height="50" relative="1" as="geometry">
            <mxPoint x="595" y="770" as="sourcePoint" />
            <mxPoint x="635" y="770" as="targetPoint" />
          </mxGeometry>
        </mxCell>
        <mxCell id="aOqvlGi3BOh0_aibLUsC-58" value="Individual metric values" style="text;html=1;align=center;verticalAlign=middle;whiteSpace=wrap;rounded=0;" parent="1" vertex="1">
          <mxGeometry x="635" y="873" width="80" height="30" as="geometry" />
        </mxCell>
        <mxCell id="aOqvlGi3BOh0_aibLUsC-59" value="" style="endArrow=classic;html=1;rounded=0;exitX=1;exitY=0.5;exitDx=0;exitDy=0;entryX=0;entryY=0.5;entryDx=0;entryDy=0;" parent="1" source="aOqvlGi3BOh0_aibLUsC-58" target="aOqvlGi3BOh0_aibLUsC-60" edge="1">
          <mxGeometry width="50" height="50" relative="1" as="geometry">
            <mxPoint x="875" y="998" as="sourcePoint" />
            <mxPoint x="755" y="888" as="targetPoint" />
          </mxGeometry>
        </mxCell>
        <mxCell id="aOqvlGi3BOh0_aibLUsC-60" value="Multi-Objective&lt;div&gt;function and constraints&amp;nbsp; evaluation&lt;/div&gt;" style="rounded=0;whiteSpace=wrap;html=1;" parent="1" vertex="1">
          <mxGeometry x="815" y="848" width="120" height="80" as="geometry" />
        </mxCell>
        <mxCell id="aOqvlGi3BOh0_aibLUsC-61" value="User configuration I" style="text;html=1;align=center;verticalAlign=middle;whiteSpace=wrap;rounded=0;" parent="1" vertex="1">
          <mxGeometry x="735" y="738" width="80" height="30" as="geometry" />
        </mxCell>
        <mxCell id="aOqvlGi3BOh0_aibLUsC-62" value="" style="endArrow=classic;html=1;rounded=0;entryX=0;entryY=0.25;entryDx=0;entryDy=0;exitX=0.5;exitY=1;exitDx=0;exitDy=0;" parent="1" source="aOqvlGi3BOh0_aibLUsC-61" target="aOqvlGi3BOh0_aibLUsC-60" edge="1">
          <mxGeometry width="50" height="50" relative="1" as="geometry">
            <mxPoint x="825" y="798" as="sourcePoint" />
            <mxPoint x="814.5" y="928" as="targetPoint" />
            <Array as="points">
              <mxPoint x="775" y="868" />
            </Array>
          </mxGeometry>
        </mxCell>
        <mxCell id="aOqvlGi3BOh0_aibLUsC-63" value="" style="endArrow=none;html=1;rounded=0;exitX=1;exitY=0.5;exitDx=0;exitDy=0;endFill=0;entryX=0.5;entryY=0;entryDx=0;entryDy=0;" parent="1" source="aOqvlGi3BOh0_aibLUsC-60" target="aOqvlGi3BOh0_aibLUsC-64" edge="1">
          <mxGeometry width="50" height="50" relative="1" as="geometry">
            <mxPoint x="635" y="998" as="sourcePoint" />
            <mxPoint x="915" y="948" as="targetPoint" />
            <Array as="points">
              <mxPoint x="975" y="888" />
            </Array>
          </mxGeometry>
        </mxCell>
        <mxCell id="aOqvlGi3BOh0_aibLUsC-64" value="MO function&lt;div&gt;value&lt;/div&gt;" style="text;html=1;align=center;verticalAlign=middle;whiteSpace=wrap;rounded=0;" parent="1" vertex="1">
          <mxGeometry x="935" y="953" width="80" height="30" as="geometry" />
        </mxCell>
        <mxCell id="aOqvlGi3BOh0_aibLUsC-65" value="MO optimization" style="rounded=0;whiteSpace=wrap;html=1;" parent="1" vertex="1">
          <mxGeometry x="815" y="1008" width="120" height="80" as="geometry" />
        </mxCell>
        <mxCell id="aOqvlGi3BOh0_aibLUsC-66" value="" style="endArrow=classic;html=1;rounded=0;exitX=0;exitY=0.5;exitDx=0;exitDy=0;entryX=0.5;entryY=1;entryDx=0;entryDy=0;" parent="1" source="aOqvlGi3BOh0_aibLUsC-69" target="aOqvlGi3BOh0_aibLUsC-52" edge="1">
          <mxGeometry width="50" height="50" relative="1" as="geometry">
            <mxPoint x="515" y="928" as="sourcePoint" />
            <mxPoint x="565" y="878" as="targetPoint" />
            <Array as="points">
              <mxPoint x="260" y="1050" />
            </Array>
          </mxGeometry>
        </mxCell>
        <mxCell id="aOqvlGi3BOh0_aibLUsC-67" value="" style="endArrow=classic;html=1;rounded=0;entryX=1;entryY=0.5;entryDx=0;entryDy=0;exitX=0.5;exitY=1;exitDx=0;exitDy=0;" parent="1" source="aOqvlGi3BOh0_aibLUsC-64" target="aOqvlGi3BOh0_aibLUsC-65" edge="1">
          <mxGeometry width="50" height="50" relative="1" as="geometry">
            <mxPoint x="535" y="1008" as="sourcePoint" />
            <mxPoint x="585" y="958" as="targetPoint" />
            <Array as="points">
              <mxPoint x="975" y="1048" />
            </Array>
          </mxGeometry>
        </mxCell>
        <mxCell id="aOqvlGi3BOh0_aibLUsC-68" value="" style="endArrow=none;html=1;rounded=0;exitX=0;exitY=0.5;exitDx=0;exitDy=0;endFill=0;" parent="1" source="aOqvlGi3BOh0_aibLUsC-65" target="aOqvlGi3BOh0_aibLUsC-69" edge="1">
          <mxGeometry width="50" height="50" relative="1" as="geometry">
            <mxPoint x="755" y="1048" as="sourcePoint" />
            <mxPoint x="435" y="1048" as="targetPoint" />
          </mxGeometry>
        </mxCell>
        <mxCell id="aOqvlGi3BOh0_aibLUsC-69" value="Control inputs/&lt;div&gt;control strategy&lt;/div&gt;" style="text;html=1;align=center;verticalAlign=middle;whiteSpace=wrap;rounded=0;" parent="1" vertex="1">
          <mxGeometry x="495" y="1033" width="100" height="30" as="geometry" />
        </mxCell>
        <mxCell id="aOqvlGi3BOh0_aibLUsC-70" value="User&lt;div&gt;configuration II&lt;/div&gt;" style="text;html=1;align=center;verticalAlign=middle;whiteSpace=wrap;rounded=0;" parent="1" vertex="1">
          <mxGeometry x="925" y="1168" width="100" height="30" as="geometry" />
        </mxCell>
        <mxCell id="aOqvlGi3BOh0_aibLUsC-71" value="" style="endArrow=classic;html=1;rounded=0;entryX=1;entryY=0.75;entryDx=0;entryDy=0;exitX=0.5;exitY=0;exitDx=0;exitDy=0;" parent="1" source="aOqvlGi3BOh0_aibLUsC-70" target="aOqvlGi3BOh0_aibLUsC-65" edge="1">
          <mxGeometry width="50" height="50" relative="1" as="geometry">
            <mxPoint x="1015" y="1228" as="sourcePoint" />
            <mxPoint x="1005" y="1298" as="targetPoint" />
            <Array as="points">
              <mxPoint x="975" y="1068" />
            </Array>
          </mxGeometry>
        </mxCell>
        <mxCell id="aOqvlGi3BOh0_aibLUsC-72" value="Wind Farm Models and Metrics evaluation" style="rounded=0;whiteSpace=wrap;html=1;fillColor=#f9f7ed;strokeColor=#36393d;labelPosition=center;verticalLabelPosition=middle;align=center;verticalAlign=middle;horizontal=1;fillOpacity=50;" parent="1" vertex="1">
          <mxGeometry x="280" y="220" width="160" height="240" as="geometry" />
        </mxCell>
        <mxCell id="aOqvlGi3BOh0_aibLUsC-73" value="" style="endArrow=classic;html=1;rounded=0;exitX=0;exitY=0.5;exitDx=0;exitDy=0;entryX=1;entryY=0.833;entryDx=0;entryDy=0;entryPerimeter=0;" parent="1" source="aOqvlGi3BOh0_aibLUsC-36" target="aOqvlGi3BOh0_aibLUsC-72" edge="1">
          <mxGeometry width="50" height="50" relative="1" as="geometry">
            <mxPoint x="470" y="440" as="sourcePoint" />
            <mxPoint x="520" y="390" as="targetPoint" />
          </mxGeometry>
        </mxCell>
        <mxCell id="aOqvlGi3BOh0_aibLUsC-74" value="User configuration I" style="text;html=1;align=center;verticalAlign=middle;whiteSpace=wrap;rounded=0;" parent="1" vertex="1">
          <mxGeometry x="600" y="110" width="80" height="30" as="geometry" />
        </mxCell>
        <mxCell id="aOqvlGi3BOh0_aibLUsC-75" value="" style="endArrow=classic;html=1;rounded=0;entryX=0;entryY=0.25;entryDx=0;entryDy=0;exitX=0.5;exitY=1;exitDx=0;exitDy=0;" parent="1" source="aOqvlGi3BOh0_aibLUsC-74" target="aOqvlGi3BOh0_aibLUsC-16" edge="1">
          <mxGeometry width="50" height="50" relative="1" as="geometry">
            <mxPoint x="685" y="170" as="sourcePoint" />
            <mxPoint x="675" y="240" as="targetPoint" />
            <Array as="points">
              <mxPoint x="640" y="240" />
            </Array>
          </mxGeometry>
        </mxCell>
        <mxCell id="aOqvlGi3BOh0_aibLUsC-76" value="User&lt;div&gt;configuration II&lt;/div&gt;" style="text;html=1;align=center;verticalAlign=middle;whiteSpace=wrap;rounded=0;" parent="1" vertex="1">
          <mxGeometry x="790" y="540" width="100" height="30" as="geometry" />
        </mxCell>
        <mxCell id="aOqvlGi3BOh0_aibLUsC-77" value="" style="endArrow=classic;html=1;rounded=0;exitX=0.5;exitY=0;exitDx=0;exitDy=0;" parent="1" source="aOqvlGi3BOh0_aibLUsC-76" edge="1">
          <mxGeometry width="50" height="50" relative="1" as="geometry">
            <mxPoint x="875" y="600" as="sourcePoint" />
            <mxPoint x="800" y="440" as="targetPoint" />
            <Array as="points">
              <mxPoint x="840" y="440" />
            </Array>
          </mxGeometry>
        </mxCell>
        <mxCell id="aOqvlGi3BOh0_aibLUsC-78" value="&lt;h1 style=&quot;margin-top: 0px;&quot;&gt;Ambient coditions&lt;/h1&gt;&lt;p&gt;&lt;font style=&quot;font-size: 16px;&quot;&gt;Ambient wind&amp;nbsp;&lt;/font&gt;&lt;span style=&quot;font-size: 16px; background-color: transparent; color: light-dark(rgb(0, 0, 0), rgb(255, 255, 255));&quot;&gt;conditions&lt;/span&gt;&lt;/p&gt;&lt;p&gt;&lt;/p&gt;&lt;ul&gt;&lt;li&gt;&lt;span style=&quot;background-color: transparent; color: light-dark(rgb(0, 0, 0), rgb(255, 255, 255));&quot;&gt;&lt;font&gt;Wind speed&lt;/font&gt;&lt;/span&gt;&lt;/li&gt;&lt;li&gt;&lt;span style=&quot;background-color: transparent; color: light-dark(rgb(0, 0, 0), rgb(255, 255, 255));&quot;&gt;&lt;font&gt;Wind direction&lt;/font&gt;&lt;/span&gt;&lt;/li&gt;&lt;li&gt;&lt;span style=&quot;background-color: transparent; color: light-dark(rgb(0, 0, 0), rgb(255, 255, 255));&quot;&gt;&lt;font&gt;Turbulence Intensity&lt;/font&gt;&lt;/span&gt;&lt;/li&gt;&lt;li&gt;&lt;span style=&quot;background-color: transparent; color: light-dark(rgb(0, 0, 0), rgb(255, 255, 255));&quot;&gt;&lt;font&gt;...&lt;br&gt;&lt;/font&gt;&lt;/span&gt;&lt;/li&gt;&lt;/ul&gt;&lt;font style=&quot;font-size: 16px;&quot;&gt;Economic factors&lt;/font&gt;&lt;div&gt;&lt;ul&gt;&lt;li&gt;&lt;font&gt;Electricity price&lt;/font&gt;&lt;/li&gt;&lt;li&gt;&lt;font&gt;...&lt;/font&gt;&lt;/li&gt;&lt;/ul&gt;&lt;div&gt;&lt;font style=&quot;font-size: 16px;&quot;&gt;Ecological factors&lt;/font&gt;&lt;div&gt;&lt;ul&gt;&lt;li&gt;Marginal CO2 Displacement Factor&lt;/li&gt;&lt;li&gt;Bats/Birds actiivity&lt;/li&gt;&lt;li&gt;...&lt;/li&gt;&lt;/ul&gt;&lt;div&gt;&lt;br&gt;&lt;/div&gt;&lt;/div&gt;&lt;/div&gt;&lt;/div&gt;&lt;div&gt;&lt;br&gt;&lt;/div&gt;" style="text;html=1;whiteSpace=wrap;overflow=hidden;rounded=0;" parent="1" vertex="1">
          <mxGeometry x="10" y="180" width="215" height="320" as="geometry" />
        </mxCell>
        <mxCell id="vkuAOGlJkcku4Va_d99O-1" value="Economic&lt;div&gt;factors&lt;/div&gt;" style="text;html=1;align=center;verticalAlign=middle;whiteSpace=wrap;rounded=0;" vertex="1" parent="1">
          <mxGeometry x="55" y="678" width="60" height="30" as="geometry" />
        </mxCell>
        <mxCell id="vkuAOGlJkcku4Va_d99O-2" value="" style="endArrow=classic;html=1;rounded=0;exitX=1;exitY=0.5;exitDx=0;exitDy=0;entryX=0;entryY=0.25;entryDx=0;entryDy=0;" edge="1" parent="1" source="vkuAOGlJkcku4Va_d99O-1" target="aOqvlGi3BOh0_aibLUsC-55">
          <mxGeometry width="50" height="50" relative="1" as="geometry">
            <mxPoint x="410" y="678" as="sourcePoint" />
            <mxPoint x="475" y="843" as="targetPoint" />
            <Array as="points">
              <mxPoint x="420" y="693" />
              <mxPoint x="420" y="859" />
            </Array>
          </mxGeometry>
        </mxCell>
        <mxCell id="vkuAOGlJkcku4Va_d99O-3" value="Economic&lt;div&gt;factors&lt;/div&gt;" style="text;html=1;align=center;verticalAlign=middle;whiteSpace=wrap;rounded=0;" vertex="1" parent="1">
          <mxGeometry x="55" y="768" width="60" height="30" as="geometry" />
        </mxCell>
        <mxCell id="vkuAOGlJkcku4Va_d99O-4" value="" style="endArrow=classic;html=1;rounded=0;exitX=1;exitY=0.5;exitDx=0;exitDy=0;entryX=0;entryY=0.5;entryDx=0;entryDy=0;" edge="1" parent="1" source="vkuAOGlJkcku4Va_d99O-3" target="aOqvlGi3BOh0_aibLUsC-55">
          <mxGeometry width="50" height="50" relative="1" as="geometry">
            <mxPoint x="380" y="733" as="sourcePoint" />
            <mxPoint x="445" y="923" as="targetPoint" />
            <Array as="points">
              <mxPoint x="390" y="790" />
              <mxPoint x="390" y="880" />
            </Array>
          </mxGeometry>
        </mxCell>
        <mxCell id="vkuAOGlJkcku4Va_d99O-6" value="" style="endArrow=classic;html=1;rounded=0;exitX=1;exitY=0.5;exitDx=0;exitDy=0;" edge="1" parent="1" source="aOqvlGi3BOh0_aibLUsC-78">
          <mxGeometry width="50" height="50" relative="1" as="geometry">
            <mxPoint x="400" y="390" as="sourcePoint" />
            <mxPoint x="280" y="340" as="targetPoint" />
          </mxGeometry>
        </mxCell>
        <mxCell id="vkuAOGlJkcku4Va_d99O-7" value="" style="endArrow=classic;html=1;rounded=0;exitX=1;exitY=0.75;exitDx=0;exitDy=0;entryX=0;entryY=0.75;entryDx=0;entryDy=0;" edge="1" parent="1" source="aOqvlGi3BOh0_aibLUsC-78" target="aOqvlGi3BOh0_aibLUsC-72">
          <mxGeometry width="50" height="50" relative="1" as="geometry">
            <mxPoint x="235" y="270" as="sourcePoint" />
            <mxPoint x="290" y="290" as="targetPoint" />
            <Array as="points">
              <mxPoint x="250" y="420" />
              <mxPoint x="250" y="400" />
            </Array>
          </mxGeometry>
        </mxCell>
        <mxCell id="vkuAOGlJkcku4Va_d99O-8" value="TWAIN WP 4" style="rounded=0;whiteSpace=wrap;html=1;fillColor=#ffcccc;strokeColor=#36393d;labelPosition=center;verticalLabelPosition=middle;align=center;verticalAlign=top;horizontal=1;fillOpacity=50;" vertex="1" parent="1">
          <mxGeometry x="730" y="-530" width="160" height="240" as="geometry" />
        </mxCell>
        <mxCell id="vkuAOGlJkcku4Va_d99O-9" value="" style="endArrow=none;html=1;rounded=0;exitX=1;exitY=0.5;exitDx=0;exitDy=0;endFill=0;entryX=0;entryY=0.5;entryDx=0;entryDy=0;" edge="1" parent="1" target="vkuAOGlJkcku4Va_d99O-10">
          <mxGeometry width="50" height="50" relative="1" as="geometry">
            <mxPoint x="491" y="-491" as="sourcePoint" />
            <mxPoint x="531" y="-491" as="targetPoint" />
          </mxGeometry>
        </mxCell>
        <mxCell id="vkuAOGlJkcku4Va_d99O-10" value="Individual metric values" style="text;html=1;align=center;verticalAlign=middle;whiteSpace=wrap;rounded=0;" vertex="1" parent="1">
          <mxGeometry x="585" y="-506" width="80" height="30" as="geometry" />
        </mxCell>
        <mxCell id="vkuAOGlJkcku4Va_d99O-11" value="" style="endArrow=classic;html=1;rounded=0;exitX=1;exitY=0.5;exitDx=0;exitDy=0;entryX=0;entryY=0.5;entryDx=0;entryDy=0;" edge="1" parent="1" source="vkuAOGlJkcku4Va_d99O-10">
          <mxGeometry width="50" height="50" relative="1" as="geometry">
            <mxPoint x="626.0000000000005" y="-491" as="sourcePoint" />
            <mxPoint x="731" y="-491" as="targetPoint" />
          </mxGeometry>
        </mxCell>
        <mxCell id="vkuAOGlJkcku4Va_d99O-12" value="" style="endArrow=none;html=1;rounded=0;exitX=0;exitY=0.5;exitDx=0;exitDy=0;endFill=0;entryX=1;entryY=0.5;entryDx=0;entryDy=0;" edge="1" parent="1" target="vkuAOGlJkcku4Va_d99O-13">
          <mxGeometry width="50" height="50" relative="1" as="geometry">
            <mxPoint x="731" y="-331" as="sourcePoint" />
            <mxPoint x="641.0000000000005" y="-331" as="targetPoint" />
          </mxGeometry>
        </mxCell>
        <mxCell id="vkuAOGlJkcku4Va_d99O-13" value="Control inputs/&lt;div&gt;control strategy&lt;/div&gt;&lt;div&gt;(&lt;i&gt;optimization var&lt;/i&gt;&lt;span style=&quot;background-color: transparent; color: light-dark(rgb(0, 0, 0), rgb(255, 255, 255));&quot;&gt;&lt;i&gt;iables&lt;/i&gt;)&lt;/span&gt;&lt;/div&gt;" style="text;html=1;align=center;verticalAlign=middle;whiteSpace=wrap;rounded=0;" vertex="1" parent="1">
          <mxGeometry x="565" y="-370" width="100" height="80" as="geometry" />
        </mxCell>
        <mxCell id="vkuAOGlJkcku4Va_d99O-14" value="Wind Farm Models and Metrics evaluation" style="rounded=0;whiteSpace=wrap;html=1;fillColor=#f9f7ed;strokeColor=#36393d;labelPosition=center;verticalLabelPosition=middle;align=center;verticalAlign=middle;horizontal=1;fillOpacity=50;" vertex="1" parent="1">
          <mxGeometry x="331" y="-460.5" width="160" height="99" as="geometry" />
        </mxCell>
        <mxCell id="vkuAOGlJkcku4Va_d99O-15" value="" style="endArrow=classic;html=1;rounded=0;exitX=0;exitY=0.5;exitDx=0;exitDy=0;entryX=1;entryY=0.833;entryDx=0;entryDy=0;entryPerimeter=0;" edge="1" parent="1" source="vkuAOGlJkcku4Va_d99O-13" target="vkuAOGlJkcku4Va_d99O-14">
          <mxGeometry width="50" height="50" relative="1" as="geometry">
            <mxPoint x="521" y="-311" as="sourcePoint" />
            <mxPoint x="571" y="-361" as="targetPoint" />
          </mxGeometry>
        </mxCell>
        <mxCell id="vkuAOGlJkcku4Va_d99O-16" value="" style="endArrow=classic;html=1;rounded=0;exitX=1;exitY=0.5;exitDx=0;exitDy=0;" edge="1" parent="1">
          <mxGeometry width="50" height="50" relative="1" as="geometry">
            <mxPoint x="276" y="-411" as="sourcePoint" />
            <mxPoint x="331" y="-411" as="targetPoint" />
          </mxGeometry>
        </mxCell>
        <mxCell id="vkuAOGlJkcku4Va_d99O-18" value="Ambient conditions" style="text;html=1;align=center;verticalAlign=middle;whiteSpace=wrap;rounded=0;" vertex="1" parent="1">
          <mxGeometry x="215" y="-426" width="60" height="30" as="geometry" />
        </mxCell>
      </root>
    </mxGraphModel>
  </diagram>
</mxfile>
